<mxfile host="app.diagrams.net" agent="Mozilla/5.0 (X11; Ubuntu; Linux x86_64; rv:133.0) Gecko/20100101 Firefox/133.0" version="25.0.0">
  <diagram id="C5RBs43oDa-KdzZeNtuy" name="Page-1">
    <mxGraphModel dx="1193" dy="764" grid="1" gridSize="10" guides="1" tooltips="1" connect="1" arrows="1" fold="1" page="1" pageScale="1" pageWidth="827" pageHeight="1169" math="0" shadow="0">
      <root>
        <mxCell id="WIyWlLk6GJQsqaUBKTNV-0" />
        <mxCell id="WIyWlLk6GJQsqaUBKTNV-1" parent="WIyWlLk6GJQsqaUBKTNV-0" />
        <mxCell id="Tkb0sxCdEuPJOBt_XraD-61" value="" style="rounded=1;whiteSpace=wrap;html=1;" parent="WIyWlLk6GJQsqaUBKTNV-1" vertex="1">
          <mxGeometry x="290" width="520" height="270" as="geometry" />
        </mxCell>
        <mxCell id="Tkb0sxCdEuPJOBt_XraD-2" value="" style="group" parent="WIyWlLk6GJQsqaUBKTNV-1" vertex="1" connectable="0">
          <mxGeometry x="180" y="170" width="90" height="80" as="geometry" />
        </mxCell>
        <mxCell id="Tkb0sxCdEuPJOBt_XraD-0" value="" style="shape=cylinder3;whiteSpace=wrap;html=1;boundedLbl=1;backgroundOutline=1;size=15;movable=1;resizable=1;rotatable=1;deletable=1;editable=1;locked=0;connectable=1;" parent="Tkb0sxCdEuPJOBt_XraD-2" vertex="1">
          <mxGeometry width="90" height="80" as="geometry" />
        </mxCell>
        <mxCell id="Tkb0sxCdEuPJOBt_XraD-1" value="Git repository" style="text;html=1;align=center;verticalAlign=middle;whiteSpace=wrap;rounded=0;movable=0;resizable=0;rotatable=0;deletable=0;editable=0;locked=1;connectable=0;" parent="Tkb0sxCdEuPJOBt_XraD-2" vertex="1">
          <mxGeometry x="15" y="40" width="60" height="30" as="geometry" />
        </mxCell>
        <mxCell id="Tkb0sxCdEuPJOBt_XraD-51" value="" style="dashed=0;outlineConnect=0;html=1;align=center;labelPosition=center;verticalLabelPosition=bottom;verticalAlign=top;shape=mxgraph.weblogos.github" parent="Tkb0sxCdEuPJOBt_XraD-2" vertex="1">
          <mxGeometry x="15" y="40" width="16" height="15" as="geometry" />
        </mxCell>
        <mxCell id="Tkb0sxCdEuPJOBt_XraD-6" value="" style="rounded=0;html=1;jettySize=auto;orthogonalLoop=1;fontSize=11;endArrow=block;endFill=0;endSize=8;strokeWidth=1;shadow=0;labelBackgroundColor=none;edgeStyle=orthogonalEdgeStyle;entryX=0;entryY=0.5;entryDx=0;entryDy=0;entryPerimeter=0;fillColor=#1ba1e2;strokeColor=#006EAF;exitX=0.982;exitY=0.49;exitDx=0;exitDy=0;exitPerimeter=0;" parent="WIyWlLk6GJQsqaUBKTNV-1" source="Tkb0sxCdEuPJOBt_XraD-34" edge="1">
          <mxGeometry relative="1" as="geometry">
            <mxPoint x="480" y="210" as="targetPoint" />
            <Array as="points" />
            <mxPoint x="460" y="210" as="sourcePoint" />
          </mxGeometry>
        </mxCell>
        <mxCell id="Tkb0sxCdEuPJOBt_XraD-12" value="" style="rounded=0;html=1;jettySize=auto;orthogonalLoop=1;fontSize=11;endArrow=block;endFill=0;endSize=8;strokeWidth=1;shadow=0;labelBackgroundColor=none;edgeStyle=orthogonalEdgeStyle;entryX=0;entryY=0.5;entryDx=0;entryDy=0;entryPerimeter=0;" parent="WIyWlLk6GJQsqaUBKTNV-1" edge="1">
          <mxGeometry relative="1" as="geometry">
            <mxPoint x="270" y="209.74" as="sourcePoint" />
            <mxPoint x="310" y="209.74" as="targetPoint" />
            <Array as="points" />
          </mxGeometry>
        </mxCell>
        <mxCell id="Tkb0sxCdEuPJOBt_XraD-14" value="" style="rounded=0;html=1;jettySize=auto;orthogonalLoop=1;fontSize=11;endArrow=block;endFill=0;endSize=8;strokeWidth=1;shadow=0;labelBackgroundColor=none;edgeStyle=orthogonalEdgeStyle;entryX=0;entryY=0.5;entryDx=0;entryDy=0;entryPerimeter=0;fillColor=#1ba1e2;strokeColor=#006EAF;" parent="WIyWlLk6GJQsqaUBKTNV-1" edge="1">
          <mxGeometry relative="1" as="geometry">
            <mxPoint x="650" y="209.81" as="targetPoint" />
            <Array as="points" />
            <mxPoint x="600" y="209.81" as="sourcePoint" />
          </mxGeometry>
        </mxCell>
        <mxCell id="Tkb0sxCdEuPJOBt_XraD-19" value="" style="group" parent="WIyWlLk6GJQsqaUBKTNV-1" vertex="1" connectable="0">
          <mxGeometry x="330" y="70" width="90" height="80" as="geometry" />
        </mxCell>
        <mxCell id="Tkb0sxCdEuPJOBt_XraD-20" value="" style="group" parent="Tkb0sxCdEuPJOBt_XraD-19" vertex="1" connectable="0">
          <mxGeometry width="90" height="80" as="geometry" />
        </mxCell>
        <mxCell id="Tkb0sxCdEuPJOBt_XraD-21" value="" style="shape=cylinder3;whiteSpace=wrap;html=1;boundedLbl=1;backgroundOutline=1;size=15;movable=1;resizable=1;rotatable=1;deletable=1;editable=1;locked=0;connectable=1;" parent="Tkb0sxCdEuPJOBt_XraD-20" vertex="1">
          <mxGeometry width="90" height="80" as="geometry" />
        </mxCell>
        <mxCell id="Tkb0sxCdEuPJOBt_XraD-22" value="Database" style="text;html=1;align=center;verticalAlign=middle;whiteSpace=wrap;rounded=0;movable=1;resizable=1;rotatable=1;deletable=1;editable=1;locked=0;connectable=1;" parent="Tkb0sxCdEuPJOBt_XraD-20" vertex="1">
          <mxGeometry x="24" y="35" width="60" height="30" as="geometry" />
        </mxCell>
        <mxCell id="Tkb0sxCdEuPJOBt_XraD-27" style="shape=image;editableCssRules=.*;image=data:image/svg+xml,PHN2ZyB2aWV3Qm94PSIwIDAgMjQgMjQiIHhtbG5zPSJodHRwOi8vd3d3LnczLm9yZy8yMDAwL3N2ZyI+PHN0eWxlPip7ZmlsbDojM0ZDRjhFfTwvc3R5bGU+PHBhdGggZD0iTTExLjkgMS4wMzZjLS4wMTUtLjk4Ni0xLjI2LTEuNDEtMS44NzQtLjYzN0wuNzY0IDEyLjA1Qy0uMzMgMTMuNDI3LjY1IDE1LjQ1NSAyLjQwOSAxNS40NTVoOS41NzlsLjExMyA3LjUxYy4wMTQuOTg1IDEuMjU5IDEuNDA4IDEuODczLjYzNmw5LjI2Mi0xMS42NTNjMS4wOTMtMS4zNzUuMTEzLTMuNDAzLTEuNjQ1LTMuNDAzaC05LjY0MnoiLz48L3N2Zz4=;" parent="Tkb0sxCdEuPJOBt_XraD-20" vertex="1">
          <mxGeometry x="4" y="40" width="20" height="20" as="geometry" />
        </mxCell>
        <mxCell id="Tkb0sxCdEuPJOBt_XraD-25" value="" style="rounded=0;html=1;jettySize=auto;orthogonalLoop=1;fontSize=11;endArrow=block;endFill=0;endSize=8;strokeWidth=1;shadow=0;labelBackgroundColor=none;edgeStyle=orthogonalEdgeStyle;fillColor=#1ba1e2;strokeColor=#006EAF;" parent="WIyWlLk6GJQsqaUBKTNV-1" edge="1">
          <mxGeometry relative="1" as="geometry">
            <mxPoint x="370" y="150" as="targetPoint" />
            <Array as="points" />
            <mxPoint x="370" y="190" as="sourcePoint" />
          </mxGeometry>
        </mxCell>
        <mxCell id="Tkb0sxCdEuPJOBt_XraD-36" value="" style="group" parent="WIyWlLk6GJQsqaUBKTNV-1" vertex="1" connectable="0">
          <mxGeometry x="310" y="190" width="140" height="40" as="geometry" />
        </mxCell>
        <mxCell id="Tkb0sxCdEuPJOBt_XraD-33" value="" style="rounded=1;whiteSpace=wrap;html=1;arcSize=50;" parent="Tkb0sxCdEuPJOBt_XraD-36" vertex="1">
          <mxGeometry width="140" height="40" as="geometry" />
        </mxCell>
        <mxCell id="Tkb0sxCdEuPJOBt_XraD-26" style="shape=image;editableCssRules=.*;image=data:image/svg+xml,PHN2ZyB2aWV3Qm94PSIwIDAgMjQgMjQiIHhtbG5zPSJodHRwOi8vd3d3LnczLm9yZy8yMDAwL3N2ZyI+PHN0eWxlPip7ZmlsbDojNjBBODM5fTwvc3R5bGU+PHBhdGggZD0iTTEyIDBDNS4zNzMgMCAwIDUuMzczIDAgMTJjMCA2LjYyOCA1LjM3MyAxMiAxMiAxMiA2LjYyOCAwIDEyLTUuMzcyIDEyLTEyIDAtNi42MjctNS4zNzItMTItMTItMTJabTAgMS4xMTNjNi4wMDMgMCAxMC44ODcgNC44ODQgMTAuODg3IDEwLjg4N1MxOC4wMDMgMjIuODg3IDEyIDIyLjg4NyAxLjExMyAxOC4wMDMgMS4xMTMgMTIgNS45OTcgMS4xMTMgMTIgMS4xMTNabTcuMDMgNS4yMDFjLS41MzYtLjAwMi0xLjI4LjMwNC0yLjI1NSAxLjA5OC0xLjA1Mi44NTgtMy44MTQgMy4wNDUtMy44MTQgMy4wNDVsMS4wMjUgMS4zYzQuNjk0LTIuNTU4IDYuMTktMy4xNjcgNi4xMTYtNC4yOTQtLjA0Mi0uNjM0LS4zODQtMS4xNDYtMS4wNzMtMS4xNDlabS0uNTA3Ljc1MmMuMTQ3IDAgLjI2Ni4xMDYuMjY2LjIzOSAwIC4xMzItLjExOS4yMzgtLjI2Ni4yMzgtLjE0NiAwLS4yNjUtLjEwNi0uMjY1LS4yMzggMC0uMTcxLjE2Mi0uMjM5LjI2NS0uMjM5em0tMS41OCAxLjQ4OWMwIC4xMzEtLjExOC4yMzgtLjI2NS4yMzgtLjE0NyAwLS4yNjQtLjEwNy0uMjY0LS4yMzggMC0uMTI4LjExLS4yMzQuMjQtLjI0LjEzLS4wMDYuMjkuMDc3LjI5LjI0em0tMi4xMDkgMS4wMWMuMTQ3IDAgLjI2Ni4xMDYuMjY2LjIzOHMtLjEyLjIzOC0uMjY2LjIzOGMtLjE0NiAwLS4yNjYtLjEwNi0uMjY2LS4yMzggMC0uMTQ4LjEzOS0uMjM5LjI2Ni0uMjM5em0tMi40NDUuOTcyYy0xLjUwMi4yMjUtNS44MDcuOTkyLTguMDEgMi42NzJsMy41NzQgNS4zODdzNC43MDYtMi45MzIgNS44NjMtNi4yNDR6Ii8+PC9zdmc+;" parent="Tkb0sxCdEuPJOBt_XraD-36" vertex="1">
          <mxGeometry x="11.666666666666664" y="10" width="23.33333333333333" height="20" as="geometry" />
        </mxCell>
        <mxCell id="Tkb0sxCdEuPJOBt_XraD-34" value="Data acquisition" style="text;html=1;align=center;verticalAlign=middle;whiteSpace=wrap;rounded=0;" parent="Tkb0sxCdEuPJOBt_XraD-36" vertex="1">
          <mxGeometry x="20" y="5" width="120" height="30" as="geometry" />
        </mxCell>
        <mxCell id="Tkb0sxCdEuPJOBt_XraD-37" value="" style="group" parent="WIyWlLk6GJQsqaUBKTNV-1" vertex="1" connectable="0">
          <mxGeometry x="480" y="190" width="140" height="40" as="geometry" />
        </mxCell>
        <mxCell id="Tkb0sxCdEuPJOBt_XraD-38" value="" style="rounded=1;whiteSpace=wrap;html=1;arcSize=50;" parent="Tkb0sxCdEuPJOBt_XraD-37" vertex="1">
          <mxGeometry width="140" height="40" as="geometry" />
        </mxCell>
        <mxCell id="Tkb0sxCdEuPJOBt_XraD-40" value="Model training" style="text;html=1;align=center;verticalAlign=middle;whiteSpace=wrap;rounded=0;" parent="Tkb0sxCdEuPJOBt_XraD-37" vertex="1">
          <mxGeometry x="20" y="5" width="120" height="30" as="geometry" />
        </mxCell>
        <mxCell id="Tkb0sxCdEuPJOBt_XraD-29" style="shape=image;editableCssRules=.*;image=data:image/svg+xml,PHN2ZyB2aWV3Qm94PSIwIDAgMjQgMjQiIHhtbG5zPSJodHRwOi8vd3d3LnczLm9yZy8yMDAwL3N2ZyI+PHN0eWxlPip7ZmlsbDojRjc5MzFFfTwvc3R5bGU+PHBhdGggZD0iTTE1LjYwMSA1LjUzYy0xLjkxLjAzNS0zLjk4MS45MS01LjYzIDIuNTYtMi45MyAyLjkzLTIuMDgzIDguNTMtMS4wODggOS41MjUuODA1LjgwNCA2LjU5NSAxLjg0MyA5LjUyNi0xLjA4OGE5Ljc0IDkuNzQgMCAwIDAgLjU4NC0uNjQzYy4wNDMtLjI5Mi4yMDUtLjY2LjQ4OS0xLjEwNmExLjg0OCAxLjg0OCAwIDAgMS0uNTM3LjE3NmMtLjE0NC4yNjUtLjM3LjU1LS42NzYuODU1LS4zNTQuMzM1LS42MDcuNTU0LS43Ni42NTZhLjc5NS43OTUgMCAwIDEtLjQzNy4xNTJjLS4zNSAwLS41MTQtLjMwOC0uNDk0LS45MjQtLjIyLjMxNi0uNDI1LjU0OS0uNjEyLjdhLjkxNC45MTQgMCAwIDEtLjU3OC4yMjRjLS4xOTQgMC0uMzYtLjA5LS40OTYtLjI3M2ExLjAzIDEuMDMgMCAwIDEtLjE5My0uNTA3IDQuMDE2IDQuMDE2IDAgMCAxLS43MjYuNTgzYy0uMjI0LjEzMi0uNDcuMTk3LS43NC4xOTctLjMgMC0uNTQzLS4wOTYtLjcyNy0uMjg4YS45NzguOTc4IDAgMCAxLS4yNTctLjUyNHYuMDA0Yy0uMy4yNzYtLjU2NC40OC0uNzkuNjExYTEuMjk1IDEuMjk1IDAgMCAxLS42NDkuMTk3LjY5My42OTMgMCAwIDEtLjU3MS0uMjc1Yy0uMTQ1LS4xODMtLjIxOC0uNDMtLjIxOC0uNzM5IDAtLjQ2NC4xMDEtMS4wMi4zMDItMS42Ny4yMDEtLjY1LjQ0NS0xLjI1LjczMy0xLjc5N2wuODQyLS4zMTJhLjIxLjIxIDAgMCAxIC4wNi0uMDEzYy4wNjMgMCAuMTE2LjA0Ny4xNTcuMTQuMDQuMDk1LjA2MS4yMjEuMDYxLjM4IDAgLjQ1MS0uMTA0Ljg4OC0uMzEyIDEuMzEtLjIwNy40MjItLjUzMi44NzMtLjk3NCAxLjM1Mi0uMDE4LjIzLS4wMjcuMzg4LS4wMjcuNDc0IDAgLjE5My4wMzYuMzQ1LjEwNi40NTguMDcxLjExMy4xNjUuMTY5LjI4Mi4xNjlhLjcxLjcxIDAgMCAwIC4zODItLjEzYy4xMzItLjA4NC4zMzMtLjI2LjYwMi0uNTIzLjAyOC0uNDE4LjE4Ny0uNzk4LjQ4Mi0xLjE0Mi4zMjQtLjM4LjY4NS0uNTY5IDEuMDgtLjU2OS4yMDYgMCAuMzcuMDU0LjQ5NC4xNmEuNTI0LjUyNCAwIDAgMSAuMTg2LjQxN2MwIC40NTgtLjQ4Ni44MjktMS40NTkgMS4xMTQuMDg4LjQzLjMyLjY0Ni42OTMuNjQ2YS44MDcuODA3IDAgMCAwIC40MTctLjExN2MuMTI5LS4wNzYuMzIxLS4yNDMuNTc1LS40OTcuMDMyLS4yNTIuMTE4LS40OTUuMjU5LS43MjguMTgyLS4zLjQxNi0uNTQ0LjcwMS0uNzMuMjg1LS4xODUuNTM3LS4yNzguNzU2LS4yNzguMjc2IDAgLjQ3LjEyNy41OC4zODFsLjY3Ny0uMzc0aC4xODZsLS4yOTIuOTcxYy0uMTUuNDg4LS4yMjYuODIzLS4yMjYgMS4wMDQgMCAuMTkuMDY3LjI4NS4yMDIuMjg1LjA4NiAwIC4xODEtLjA0NS4yODUtLjEzNy4xMDQtLjA5Mi4yNS0uMjMyLjQzNy0uNDJ2LjAwMWMuMTQzLS4xNTUuMjc0LS4zMi4zOTItLjQ5NC0uMTktLjA4NC0uMjg1LS4yMS0uMjg1LS4zNzUgMC0uMTcuMDU4LS4zNTIuMTc0LS41NDUuMTE2LS4xOTQuMjc1LS4yOS40NzktLjI5LjE3MiAwIC4yNTguMDg4LjI1OC4yNjUgMCAuMTM5LS4wNS4zMzgtLjE0OS41OTYuMzY3LS4wNC42ODctLjMyLjk2MS0uODQybC4yMjgtLjAxYzEuMDU5LTIuNDM4LjgyOC01LjA3NS0uODMtNi43MzItMS4wMTktMS4wMi0yLjQwOC0xLjUtMy44OTUtMS40NzF6bTQuNzI1IDguMjAzYTguOTM4IDguOTM4IDAgMCAxLTEuMzMzIDIuMTUxIDEuMDkgMS4wOSAwIDAgMC0uMDEyLjE0N2MwIC4xNjguMDQ3LjMwOS4xNC40MjMuMDkyLjExMy4yMDYuMTcuMzQuMTcuMjk2IDAgLjcxNC0uMjY0IDEuMjU0LS43ODctLjAwMS4wNC0uMDAzLjA4LS4wMDMuMTIxIDAgLjE0Ni4wMTIuMzY4LjAzNi42NjZsLjczMy0uMTcyYzAtLjIuMDAzLS4zNTcuMDEtLjQ3NC4wMS0uMTU3LjAzMy0uMzMuMDY2LS41MTcuMDItLjExLjA3LS4yMTYuMTUyLS4zMTVsLjE4Ni0uMjE2YTUuMjc2IDUuMjc2IDAgMCAxIC4zNzgtLjM5N2MuMDYyLS4wNTUuMTE2LS4wOTkuMTYyLS4xM2EuMjYuMjYgMCAwIDEgLjEyMy0uMDQ2Yy4wNTUgMCAuMDgzLjAzNS4wODMuMTA2IDAgLjA3LS4wNTIuMjM2LS4xNTYuNDk3LS4xOTQuNDg2LS4yOTIuODQ4LS4yOTIgMS4wODQgMCAuMTc1LjA0Ni4zMTQuMTM2LjQxOGEuNDUuNDUgMCAwIDAgLjM1OC4xNTVjLjM2NSAwIC44MDMtLjI2OSAxLjMxMy0uODA4di0uMzgxYy0uMzYxLjQyNi0uNjIzLjY0LS43ODQuNjQtLjEwOSAwLS4xNjMtLjA2Ny0uMTYzLS4yIDAtLjEuMDY1LS4zMTYuMTk1LS42NS4xOS0uNDg2LjI4NS0uODM2LjI4NS0xLjA0OGEuNDY0LjQ2NCAwIDAgMC0uMTEyLS4zMTkuMzYuMzYgMCAwIDAtLjI4Mi0uMTI3Yy0uMTY1IDAtLjM1NC4wNzctLjU2Ny4yMzMtLjIxMy4xNTYtLjUuNDM2LS44NjMuODQuMDUzLS4yNjIuMTY1LS42MjIuMzM1LTEuMDhsLS44MDkuMTU2YTYuNTQgNi41NCAwIDAgMC0uMzk5IDEuMDc0Yy0uMDQuMTU2LS4wNy4zMTYtLjA5Mi40OGE3LjQ0NyA3LjQ0NyAwIDAgMS0uNDkuNDUuMzguMzggMCAwIDEtLjIyOS4wOC4yMDguMjA4IDAgMCAxLS4xNzQtLjA4Mi4zNTIuMzUyIDAgMCAxLS4wNjQtLjIyMmMwLS4xLjAxOS0uMjE0LjA1Ni0uMzQzLjAzOC0uMTMuMTItLjM3My4yNDktLjczMWwuMzA4LS44NDl6bS0xNy4yMS0yLjkyN2MtLjg2My0uMDE2LTEuNjcuMjYzLTIuMjYxLjg1NC0xLjM1MiAxLjM1Mi0xLjA3IDMuODI3LjYzMSA1LjUyNyAxLjcgMS43MDEgNC45NSAxLjIxIDUuNTI3LjYzMi40NjctLjQ2NiAxLjA3LTMuODI3LS42MzEtNS41MjctLjk1Ny0uOTU3LTIuMTU4LTEuNDY1LTMuMjY3LTEuNDg2em0xMi4yODUuMzU4aC4xNjZ2LjIxSDE1LjR6bS40MjcgMGguMTY2di44NjVsLjQ2LS40NTVoLjE5NWwtLjM2NC4zNjIuNDI4LjY4NGgtLjE5OGwtLjM1Ny0uNTc1LS4xNjQuMTY2di40MWgtLjE2NnptMS4wMTYgMGguMTY2di4yMWgtLjE2NnptLjQ4MS4xMjJoLjE2NnYuMjg4aC4xNzJ2LjEzNWgtLjE3MnYuNzE3YzAgLjAzNy4wMDYuMDYyLjAyLjA3NS4wMTIuMDEzLjAzNy4wMi4wNzQuMDJhLjIzLjIzIDAgMCAwIC4wNzgtLjAxdi4xNDFhLjgwMi44MDIgMCAwIDEtLjEzNi4wMTQuMjMuMjMgMCAwIDEtLjE1LS4wNDMuMTUuMTUgMCAwIDEtLjA1Mi0uMTIzdi0uNzloLS4xNDF2LS4xMzZoLjE0MXptLTMuNTYyLjI1OGMuMDgxIDAgLjE1LjAxMi4yMDcuMDM4LjA1Ny4wMjQuMS4wNjEuMTMuMTFzLjA0NS4xMDYuMDQ1LjE3M2gtLjE3NmMtLjAwNi0uMTExLS4wNzUtLjE2Ny0uMjA4LS4xNjdhLjI4NS4yODUgMCAwIDAtLjE2NC4wNDEuMTM0LjEzNCAwIDAgMC0uMDYuMTE3YzAgLjAzNS4wMTUuMDY1LjA0NS4wODguMDMuMDI0LjA4LjA0NC4xNS4wNmwuMTYuMDM5YS40Ny40NyAwIDAgMSAuMjI0LjEwNWMuMDQ3LjA0Ni4wNy4xMDguMDcuMTg2YS4zLjMgMCAwIDEtLjA1Mi4xNzUuMzI3LjMyNyAwIDAgMS0uMTUyLjExNi41ODUuNTg1IDAgMCAxLS4yMjYuMDQxYy0uMTM2IDAtLjI0LS4wMy0uMzA5LS4wODgtLjA2OS0uMDU5LS4xMDUtLjE0OS0uMTA5LS4yNjloLjE3NmMuMDA0LjAzNy4wMS4wNjUuMDE3LjA4NGEuMTY2LjE2NiAwIDAgMCAuMDM0LjA1NGMuMDQ0LjA0My4xMTIuMDY1LjIwNC4wNjVhLjMxLjMxIDAgMCAwIC4xNzctLjA0NS4xMzkuMTM5IDAgMCAwIC4wNjctLjExOS4xMTYuMTE2IDAgMCAwLS4wMzgtLjA5LjI4Ny4yODcgMCAwIDAtLjEyNC0uMDU1bC0uMTU2LS4wMzhhMS4yNDggMS4yNDggMCAwIDEtLjE1OS0uMDUuMzU5LjM1OSAwIDAgMS0uMDk4LS4wNjEuMjIuMjIgMCAwIDEtLjA1OC0uMDgzLjMyLjMyIDAgMCAxLS4wMTYtLjEwOGMwLS4wOTYuMDM2LS4xNzQuMTA5LS4yMzJhLjQ1LjQ1IDAgMCAxIC4yOS0uMDg3em0xLjAzNSAwYS40Ni40NiAwIDAgMSAuMjAyLjA0My4zNTEuMzUxIDAgMCAxIC4xODcuMjEyLjU3Ny41NzcgMCAwIDEgLjAyMy4xMjZoLS4xNjhhLjI1Ni4yNTYgMCAwIDAtLjA3OC0uMTY4LjI0Mi4yNDIgMCAwIDAtLjE3LS4wNi4yNDguMjQ4IDAgMCAwLS4xNTUuMDUuMzA2LjMwNiAwIDAgMC0uMS4xNDQuNjYyLjY2MiAwIDAgMC0uMDM0LjIyNC41OC41OCAwIDAgMCAuMDM1LjIxNC4yOTkuMjk5IDAgMCAwIC4xMDEuMTM1LjI2MS4yNjEgMCAwIDAgLjE1Ny4wNDhjLjE0MiAwIC4yMjctLjA4NC4yNTYtLjI1MmguMTY3YS41MTkuNTE5IDAgMCAxLS4wNjUuMjIuMzUuMzUgMCAwIDEtLjE0Ni4xMzguNDY0LjQ2NCAwIDAgMS0uMjE2LjA0OC40NDguNDQ4IDAgMCAxLS4yNDYtLjA2Ni40NDEuNDQxIDAgMCAxLS4xNjEtLjE5Mi43MDMuNzAzIDAgMCAxLS4wNTctLjI5M2MwLS4wODUuMDEtLjE2My4wMzItLjIzM2EuNTIyLjUyMiAwIDAgMSAuMDk1LS4xODIuNDAzLjQwMyAwIDAgMSAuMTUtLjExNy40NTMuNDUzIDAgMCAxIC4xOTEtLjA0em0uNjAzLjAzaC4xNjZ2MS4wNDZIMTUuNHptMS40NDMgMGguMTY2djEuMDQ2aC0uMTY2em0tNS4wNS42MThjLS4wOCAwLS4yLjIwNC0uMzU2LjYxMS0uMTU1LjQwNy0uMzA4Ljk3Ny0uNDU5IDEuNzEuMjgxLS4zMTIuNTA5LS42NjIuNjgzLTEuMDUuMTc1LS4zODcuMjYyLS43Mi4yNjItLjk5OWEuNDU1LjQ1NSAwIDAgMC0uMDM2LS4xOTdjLS4wMjUtLjA1LS4wNTYtLjA3NS0uMDkzLS4wNzV6bTQuNjYyIDEuNzk3Yy0uMjIxIDAtLjQzMS4xODgtLjYyOS41NjMtLjE5Ny4zNzYtLjI5Ni43MjItLjI5NiAxLjAzOCAwIC4xMi4wMjkuMjE2LjA4OC4yOWEuMjczLjI3MyAwIDAgMCAuMjIzLjExMWMuMjIxIDAgLjQzLS4xODguNjI1LS41NjUuMTk2LS4zNzcuMjk0LS43MjUuMjk0LTEuMDQzYS40NTcuNDU3IDAgMCAwLS4wODMtLjI5LjI2OS4yNjkgMCAwIDAtLjIyMi0uMTA0em0tMi44NDguMDA3Yy0uMTQ2IDAtLjI4NS4xMS0uNDE3LjMzMy0uMTMzLjIyMi0uMi41MS0uMi44NjYuNTY2LS4xNTkuODQ5LS40NTIuODQ5LS44ODEgMC0uMjEyLS4wNzctLjMxOC0uMjMyLS4zMThaIi8+PC9zdmc+;" parent="Tkb0sxCdEuPJOBt_XraD-37" vertex="1">
          <mxGeometry x="10" y="5" width="30" height="30" as="geometry" />
        </mxCell>
        <mxCell id="Tkb0sxCdEuPJOBt_XraD-47" value="" style="rounded=0;html=1;jettySize=auto;orthogonalLoop=1;fontSize=11;endArrow=block;endFill=0;endSize=8;strokeWidth=1;shadow=0;labelBackgroundColor=none;edgeStyle=orthogonalEdgeStyle;fillColor=#1ba1e2;strokeColor=#006EAF;" parent="WIyWlLk6GJQsqaUBKTNV-1" edge="1">
          <mxGeometry relative="1" as="geometry">
            <mxPoint x="549.75" y="150" as="targetPoint" />
            <Array as="points" />
            <mxPoint x="549.75" y="190" as="sourcePoint" />
          </mxGeometry>
        </mxCell>
        <mxCell id="Tkb0sxCdEuPJOBt_XraD-55" value="" style="group" parent="WIyWlLk6GJQsqaUBKTNV-1" vertex="1" connectable="0">
          <mxGeometry x="505" y="70" width="90" height="80" as="geometry" />
        </mxCell>
        <mxCell id="Tkb0sxCdEuPJOBt_XraD-56" value="" style="shape=cylinder3;whiteSpace=wrap;html=1;boundedLbl=1;backgroundOutline=1;size=15;movable=1;resizable=1;rotatable=1;deletable=1;editable=1;locked=0;connectable=1;" parent="Tkb0sxCdEuPJOBt_XraD-55" vertex="1">
          <mxGeometry width="90" height="80" as="geometry" />
        </mxCell>
        <mxCell id="Tkb0sxCdEuPJOBt_XraD-57" value="Git repository" style="text;html=1;align=center;verticalAlign=middle;whiteSpace=wrap;rounded=0;movable=0;resizable=0;rotatable=0;deletable=0;editable=0;locked=1;connectable=0;" parent="Tkb0sxCdEuPJOBt_XraD-55" vertex="1">
          <mxGeometry x="15" y="40" width="60" height="30" as="geometry" />
        </mxCell>
        <mxCell id="Tkb0sxCdEuPJOBt_XraD-58" value="" style="dashed=0;outlineConnect=0;html=1;align=center;labelPosition=center;verticalLabelPosition=bottom;verticalAlign=top;shape=mxgraph.weblogos.github" parent="Tkb0sxCdEuPJOBt_XraD-55" vertex="1">
          <mxGeometry x="15" y="40" width="16" height="15" as="geometry" />
        </mxCell>
        <mxCell id="Tkb0sxCdEuPJOBt_XraD-69" value="" style="edgeStyle=segmentEdgeStyle;endArrow=classic;html=1;curved=0;rounded=0;endSize=8;startSize=8;dashed=1;fillColor=#1ba1e2;strokeColor=#006EAF;" parent="WIyWlLk6GJQsqaUBKTNV-1" edge="1">
          <mxGeometry width="50" height="50" relative="1" as="geometry">
            <mxPoint x="390" y="150" as="sourcePoint" />
            <mxPoint x="715" y="190.00000000000006" as="targetPoint" />
            <Array as="points">
              <mxPoint x="390" y="170" />
              <mxPoint x="715" y="170" />
            </Array>
          </mxGeometry>
        </mxCell>
        <mxCell id="Tkb0sxCdEuPJOBt_XraD-71" value="" style="group" parent="WIyWlLk6GJQsqaUBKTNV-1" vertex="1" connectable="0">
          <mxGeometry x="640" y="10" width="150" height="50" as="geometry" />
        </mxCell>
        <mxCell id="Tkb0sxCdEuPJOBt_XraD-32" value="&lt;div&gt;GitHub Actions&lt;/div&gt;" style="text;html=1;align=center;verticalAlign=middle;whiteSpace=wrap;rounded=0;fontStyle=1" parent="Tkb0sxCdEuPJOBt_XraD-71" vertex="1">
          <mxGeometry x="30" y="10" width="120" height="30" as="geometry" />
        </mxCell>
        <mxCell id="Tkb0sxCdEuPJOBt_XraD-48" style="shape=image;editableCssRules=.*;image=data:image/svg+xml,PHN2ZyB2aWV3Qm94PSIwIDAgMjQgMjQiIHhtbG5zPSJodHRwOi8vd3d3LnczLm9yZy8yMDAwL3N2ZyI+PHN0eWxlPip7ZmlsbDojMjA4OEZGfTwvc3R5bGU+PHBhdGggZD0iTTEwLjk4NCAxMy44MzZhLjUuNSAwIDAgMS0uMzUzLS4xNDZsLS43NDUtLjc0M2EuNS41IDAgMSAxIC43MDYtLjcwOGwuMzkyLjM5MSAxLjE4MS0xLjE4YS41LjUgMCAwIDEgLjcwOC43MDdsLTEuNTM1IDEuNTMzYS41MDQuNTA0IDAgMCAxLS4zNTQuMTQ2em05LjM1My0uMTQ3bDEuNTM0LTEuNTMyYS41LjUgMCAwIDAtLjcwNy0uNzA3bC0xLjE4MSAxLjE4LS4zOTItLjM5MWEuNS41IDAgMSAwLS43MDYuNzA4bC43NDYuNzQzYS40OTcuNDk3IDAgMCAwIC43MDYtLjAwMXpNNC41MjcgNy40NTJsMi41NTctMS41ODVBMSAxIDAgMCAwIDcuMDkgNC4xN0w0LjUzMyAyLjU2QTEgMSAwIDAgMCAzIDMuNDA2djMuMTk2YTEuMDAxIDEuMDAxIDAgMCAwIDEuNTI3Ljg1em0yLjAzLTIuNDM2TDQgNi42MDJWMy40MDZsMi41NTcgMS42MXpNMjQgMTIuNWMwIDEuOTMtMS41NyAzLjUtMy41IDMuNWEzLjUwMyAzLjUwMyAwIDAgMS0zLjQ2LTNoLTIuMDhhMy41MDMgMy41MDMgMCAwIDEtMy40NiAzIDMuNTAyIDMuNTAyIDAgMCAxLTMuNDYtM2gtLjU1OGMtLjk3MiAwLTEuODUtLjM5OS0yLjQ4Mi0xLjA0MlYxN2MwIDEuNjU0IDEuMzQ2IDMgMyAzaC4wNGMuMjQ0LTEuNjkzIDEuNy0zIDMuNDYtMyAxLjkzIDAgMy41IDEuNTcgMy41IDMuNVMxMy40MyAyNCAxMS41IDI0YTMuNTAyIDMuNTAyIDAgMCAxLTMuNDYtM0g4Yy0yLjIwNiAwLTQtMS43OTQtNC00VjkuODk5QTUuMDA4IDUuMDA4IDAgMCAxIDAgNWMwLTIuNzU3IDIuMjQzLTUgNS01czUgMi4yNDMgNSA1YTUuMDA1IDUuMDA1IDAgMCAxLTQuOTUyIDQuOTk4QTIuNDgyIDIuNDgyIDAgMCAwIDcuNDgyIDEyaC41NThjLjI0NC0xLjY5MyAxLjctMyAzLjQ2LTNhMy41MDIgMy41MDIgMCAwIDEgMy40NiAzaDIuMDhhMy41MDMgMy41MDMgMCAwIDEgMy40Ni0zYzEuOTMgMCAzLjUgMS41NyAzLjUgMy41em0tMTUgOGMwIDEuMzc4IDEuMTIyIDIuNSAyLjUgMi41czIuNS0xLjEyMiAyLjUtMi41LTEuMTIyLTIuNS0yLjUtMi41UzkgMTkuMTIyIDkgMjAuNXpNNSA5YzIuMjA2IDAgNC0xLjc5NCA0LTRTNy4yMDYgMSA1IDEgMSAyLjc5NCAxIDVzMS43OTQgNCA0IDR6bTkgMy41YzAtMS4zNzgtMS4xMjItMi41LTIuNS0yLjVTOSAxMS4xMjIgOSAxMi41czEuMTIyIDIuNSAyLjUgMi41IDIuNS0xLjEyMiAyLjUtMi41em05IDBjMC0xLjM3OC0xLjEyMi0yLjUtMi41LTIuNVMxOCAxMS4xMjIgMTggMTIuNXMxLjEyMiAyLjUgMi41IDIuNSAyLjUtMS4xMjIgMi41LTIuNXptLTEzIDhhLjUuNSAwIDEgMCAxIDAgLjUuNSAwIDAgMC0xIDB6bTIgMGEuNS41IDAgMSAwIDEgMCAuNS41IDAgMCAwLTEgMHptMTIgMGMwIDEuOTMtMS41NyAzLjUtMy41IDMuNWEzLjUwMyAzLjUwMyAwIDAgMS0zLjQ2LTMuMDAyYy0uMDA3LjAwMS0uMDEzLjAwNS0uMDIxLjAwNWwtLjUwNi4wMTdoLS4wMTdhLjUuNSAwIDAgMS0uMDE2LS45OTlsLjUwNi0uMDE3Yy4wMTgtLjAwMi4wMzUuMDA2LjA1Mi4wMDdBMy41MDMgMy41MDMgMCAwIDEgMjAuNSAxN2MxLjkzIDAgMy41IDEuNTcgMy41IDMuNXptLTEgMGMwLTEuMzc4LTEuMTIyLTIuNS0yLjUtMi41UzE4IDE5LjEyMiAxOCAyMC41czEuMTIyIDIuNSAyLjUgMi41IDIuNS0xLjEyMiAyLjUtMi41eiIvPjwvc3ZnPg==;" parent="Tkb0sxCdEuPJOBt_XraD-71" vertex="1">
          <mxGeometry width="40" height="50" as="geometry" />
        </mxCell>
        <mxCell id="Tkb0sxCdEuPJOBt_XraD-63" value="&lt;span style=&quot;font-weight: normal;&quot;&gt;on:&amp;nbsp; every month&lt;/span&gt;" style="text;html=1;align=center;verticalAlign=middle;whiteSpace=wrap;rounded=0;fontStyle=1" parent="Tkb0sxCdEuPJOBt_XraD-71" vertex="1">
          <mxGeometry x="43" y="30" width="100" height="20" as="geometry" />
        </mxCell>
        <mxCell id="Tkb0sxCdEuPJOBt_XraD-75" value="" style="group;fontSize=17;" parent="WIyWlLk6GJQsqaUBKTNV-1" vertex="1" connectable="0">
          <mxGeometry x="20" y="10" width="210" height="32" as="geometry" />
        </mxCell>
        <mxCell id="Tkb0sxCdEuPJOBt_XraD-72" value="&lt;font style=&quot;font-size: 16px;&quot;&gt;Peek My Home Price&lt;/font&gt;" style="text;html=1;align=center;verticalAlign=middle;whiteSpace=wrap;rounded=0;fontStyle=1" parent="Tkb0sxCdEuPJOBt_XraD-75" vertex="1">
          <mxGeometry x="38.18181818181818" width="171.8181818181818" height="30" as="geometry" />
        </mxCell>
        <mxCell id="Tkb0sxCdEuPJOBt_XraD-74" value="" style="shape=image;html=1;verticalAlign=top;verticalLabelPosition=bottom;labelBackgroundColor=#ffffff;imageAspect=0;aspect=fixed;image=https://cdn3.iconfinder.com/data/icons/142-mini-country-flags-16x16px/32/flag-belgium2x.png" parent="Tkb0sxCdEuPJOBt_XraD-75" vertex="1">
          <mxGeometry width="32" height="32" as="geometry" />
        </mxCell>
        <mxCell id="Tkb0sxCdEuPJOBt_XraD-76" value="" style="endArrow=classic;html=1;rounded=0;dashed=1;fillColor=#1ba1e2;strokeColor=#006EAF;" parent="WIyWlLk6GJQsqaUBKTNV-1" edge="1">
          <mxGeometry width="50" height="50" relative="1" as="geometry">
            <mxPoint x="540" y="170" as="sourcePoint" />
            <mxPoint x="540" y="190" as="targetPoint" />
          </mxGeometry>
        </mxCell>
        <mxCell id="Tkb0sxCdEuPJOBt_XraD-78" value="" style="edgeStyle=segmentEdgeStyle;endArrow=classic;html=1;curved=0;rounded=0;endSize=8;startSize=8;dashed=1;fillColor=#1ba1e2;strokeColor=#006EAF;" parent="WIyWlLk6GJQsqaUBKTNV-1" edge="1">
          <mxGeometry width="50" height="50" relative="1" as="geometry">
            <mxPoint x="595" y="110" as="sourcePoint" />
            <mxPoint x="730" y="190" as="targetPoint" />
          </mxGeometry>
        </mxCell>
        <mxCell id="w89j16ikShE9Zsby8Ksw-7" value="" style="group" vertex="1" connectable="0" parent="WIyWlLk6GJQsqaUBKTNV-1">
          <mxGeometry x="10" y="190" width="140" height="40" as="geometry" />
        </mxCell>
        <mxCell id="w89j16ikShE9Zsby8Ksw-8" value="" style="rounded=1;whiteSpace=wrap;html=1;arcSize=50;" vertex="1" parent="w89j16ikShE9Zsby8Ksw-7">
          <mxGeometry x="-10" width="140" height="40" as="geometry" />
        </mxCell>
        <mxCell id="w89j16ikShE9Zsby8Ksw-10" value="Experimentation" style="text;html=1;align=center;verticalAlign=middle;whiteSpace=wrap;rounded=0;" vertex="1" parent="w89j16ikShE9Zsby8Ksw-7">
          <mxGeometry x="10" y="5" width="130" height="30" as="geometry" />
        </mxCell>
        <mxCell id="w89j16ikShE9Zsby8Ksw-11" value="" style="rounded=0;html=1;jettySize=auto;orthogonalLoop=1;fontSize=11;endArrow=block;endFill=0;endSize=8;strokeWidth=1;shadow=0;labelBackgroundColor=none;edgeStyle=orthogonalEdgeStyle;entryX=0;entryY=0.5;entryDx=0;entryDy=0;entryPerimeter=0;" edge="1" parent="w89j16ikShE9Zsby8Ksw-7">
          <mxGeometry relative="1" as="geometry">
            <mxPoint x="130" y="19.74000000000001" as="sourcePoint" />
            <mxPoint x="170" y="19.74000000000001" as="targetPoint" />
            <Array as="points" />
          </mxGeometry>
        </mxCell>
        <mxCell id="w89j16ikShE9Zsby8Ksw-0" style="shape=image;editableCssRules=.*;image=data:image/svg+xml,PHN2ZyB2aWV3Qm94PSIwIDAgMjQgMjQiIHhtbG5zPSJodHRwOi8vd3d3LnczLm9yZy8yMDAwL3N2ZyI+PHN0eWxlPip7ZmlsbDojRjM3NjI2fTwvc3R5bGU+PHBhdGggZD0iTTcuMTU3IDIyLjIwMUExLjc4NCAxLjc5OSAwIDAgMSA1LjM3NCAyNGExLjc4NCAxLjc5OSAwIDAgMS0xLjc4NC0xLjc5OSAxLjc4NCAxLjc5OSAwIDAgMSAxLjc4NC0xLjc5OSAxLjc4NCAxLjc5OSAwIDAgMSAxLjc4MyAxLjc5OXpNMjAuNTgyIDEuNDI3YTEuNDE1IDEuNDI3IDAgMCAxLTEuNDE1IDEuNDI4IDEuNDE1IDEuNDI3IDAgMCAxLTEuNDE2LTEuNDI4QTEuNDE1IDEuNDI3IDAgMCAxIDE5LjE2NyAwYTEuNDE1IDEuNDI3IDAgMCAxIDEuNDE1IDEuNDI3ek00Ljk5MiAzLjMzNkExLjA0NyAxLjA1NiAwIDAgMSAzLjk0NiA0LjM5YTEuMDQ3IDEuMDU2IDAgMCAxLTEuMDQ3LTEuMDU1QTEuMDQ3IDEuMDU2IDAgMCAxIDMuOTQ2IDIuMjhhMS4wNDcgMS4wNTYgMCAwIDEgMS4wNDYgMS4wNTZ6bTcuMzM2IDEuNTE3YzMuNzY5IDAgNy4wNiAxLjM4IDguNzY4IDMuNDI0YTkuMzYzIDkuMzYzIDAgMCAwLTMuMzkzLTQuNTQ3IDkuMjM4IDkuMjM4IDAgMCAwLTUuMzc3LTEuNzI4QTkuMjM4IDkuMjM4IDAgMCAwIDYuOTUgMy43M2E5LjM2MyA5LjM2MyAwIDAgMC0zLjM5NCA0LjU0N2MxLjcxMy0yLjA0IDUuMDA0LTMuNDI0IDguNzcyLTMuNDI0em0uMDAxIDEzLjI5NWMtMy43NjggMC03LjA2LTEuMzgxLTguNzY4LTMuNDI1YTkuMzYzIDkuMzYzIDAgMCAwIDMuMzk0IDQuNTQ3QTkuMjM4IDkuMjM4IDAgMCAwIDEyLjMzIDIxYTkuMjM4IDkuMjM4IDAgMCAwIDUuMzc3LTEuNzI5IDkuMzYzIDkuMzYzIDAgMCAwIDMuMzkzLTQuNTQ3Yy0xLjcxMiAyLjA0NC01LjAwMyAzLjQyNS04Ljc3MiAzLjQyNVoiLz48L3N2Zz4=;" vertex="1" parent="w89j16ikShE9Zsby8Ksw-7">
          <mxGeometry x="-10" y="5" width="43" height="30" as="geometry" />
        </mxCell>
        <mxCell id="w89j16ikShE9Zsby8Ksw-14" value="" style="group" vertex="1" connectable="0" parent="WIyWlLk6GJQsqaUBKTNV-1">
          <mxGeometry x="650" y="190" width="130" height="40" as="geometry" />
        </mxCell>
        <mxCell id="w89j16ikShE9Zsby8Ksw-15" value="" style="rounded=1;whiteSpace=wrap;html=1;arcSize=50;" vertex="1" parent="w89j16ikShE9Zsby8Ksw-14">
          <mxGeometry width="130" height="40" as="geometry" />
        </mxCell>
        <mxCell id="w89j16ikShE9Zsby8Ksw-17" value="Model serving" style="text;html=1;align=center;verticalAlign=middle;whiteSpace=wrap;rounded=0;" vertex="1" parent="w89j16ikShE9Zsby8Ksw-14">
          <mxGeometry x="18.57142857142857" y="5" width="111.42857142857142" height="30" as="geometry" />
        </mxCell>
        <mxCell id="w89j16ikShE9Zsby8Ksw-13" value="" style="sketch=0;outlineConnect=0;fontColor=#232F3E;gradientColor=none;fillColor=#01A88D;strokeColor=none;dashed=0;verticalLabelPosition=bottom;verticalAlign=top;align=center;html=1;fontSize=12;fontStyle=0;aspect=fixed;pointerEvents=1;shape=mxgraph.aws4.sagemaker_model;" vertex="1" parent="w89j16ikShE9Zsby8Ksw-14">
          <mxGeometry x="9.29" y="10" width="20" height="20" as="geometry" />
        </mxCell>
        <mxCell id="w89j16ikShE9Zsby8Ksw-21" value="" style="group;rounded=0;dashed=1;" vertex="1" connectable="0" parent="WIyWlLk6GJQsqaUBKTNV-1">
          <mxGeometry x="610" y="290" width="80" height="80" as="geometry" />
        </mxCell>
        <mxCell id="w89j16ikShE9Zsby8Ksw-19" value="" style="whiteSpace=wrap;html=1;aspect=fixed;rounded=1;glass=0;" vertex="1" parent="w89j16ikShE9Zsby8Ksw-21">
          <mxGeometry width="80" height="80" as="geometry" />
        </mxCell>
        <mxCell id="w89j16ikShE9Zsby8Ksw-6" value="" style="shape=image;html=1;verticalAlign=top;verticalLabelPosition=bottom;labelBackgroundColor=#ffffff;imageAspect=0;aspect=fixed;image=https://cdn2.iconfinder.com/data/icons/whcompare-servers-web-hosting/50/staging-site-128.png" vertex="1" parent="w89j16ikShE9Zsby8Ksw-21">
          <mxGeometry x="15" y="20" width="50" height="50" as="geometry" />
        </mxCell>
        <mxCell id="w89j16ikShE9Zsby8Ksw-20" value="Browser" style="text;html=1;align=center;verticalAlign=middle;whiteSpace=wrap;rounded=0;" vertex="1" parent="w89j16ikShE9Zsby8Ksw-21">
          <mxGeometry width="80" height="20" as="geometry" />
        </mxCell>
        <mxCell id="w89j16ikShE9Zsby8Ksw-22" value="" style="group;rounded=1;" vertex="1" connectable="0" parent="WIyWlLk6GJQsqaUBKTNV-1">
          <mxGeometry x="747" y="290" width="80" height="80" as="geometry" />
        </mxCell>
        <mxCell id="w89j16ikShE9Zsby8Ksw-23" value="" style="whiteSpace=wrap;html=1;aspect=fixed;rounded=1;glass=0;shadow=0;" vertex="1" parent="w89j16ikShE9Zsby8Ksw-22">
          <mxGeometry width="80" height="80" as="geometry" />
        </mxCell>
        <mxCell id="w89j16ikShE9Zsby8Ksw-25" value="API" style="text;html=1;align=center;verticalAlign=middle;whiteSpace=wrap;rounded=0;" vertex="1" parent="w89j16ikShE9Zsby8Ksw-22">
          <mxGeometry width="80" height="20" as="geometry" />
        </mxCell>
        <mxCell id="w89j16ikShE9Zsby8Ksw-4" style="shape=image;editableCssRules=.*;image=data:image/svg+xml,PHN2ZyB2aWV3Qm94PSIwIDAgMjQgMjQiIHhtbG5zPSJodHRwOi8vd3d3LnczLm9yZy8yMDAwL3N2ZyI+PHN0eWxlPip7ZmlsbDojMDA5Njg4fTwvc3R5bGU+PHBhdGggZD0iTTEyIC4wMzg3QzUuMzcyOS4wMzg0LjAwMDMgNS4zOTMxIDAgMTEuOTk4OGMtLjAwMSA2LjYwNjYgNS4zNzIgMTEuOTYyOCAxMiAxMS45NjI1IDYuNjI4LjAwMDMgMTIuMDAxLTUuMzU1OSAxMi0xMS45NjI1LS4wMDAzLTYuNjA1Ny01LjM3MjktMTEuOTYwNC0xMi0xMS45Nm0tLjgyOSA1LjQxNTNoNy41NWwtNy41ODA1IDUuMzI4NGg1LjE4MjhMNS4yNzkgMTguNTQzNnEyLjk0NjYtNi41NDQ0IDUuODkyLTEzLjA4OTYiLz48L3N2Zz4=;" vertex="1" parent="w89j16ikShE9Zsby8Ksw-22">
          <mxGeometry x="10" y="25" width="60" height="45" as="geometry" />
        </mxCell>
        <mxCell id="w89j16ikShE9Zsby8Ksw-27" value="" style="endArrow=classic;html=1;rounded=0;entryX=0.484;entryY=-0.161;entryDx=0;entryDy=0;exitX=0.477;exitY=1.005;exitDx=0;exitDy=0;exitPerimeter=0;entryPerimeter=0;fillColor=#008a00;strokeColor=#005700;shadow=1;" edge="1" parent="WIyWlLk6GJQsqaUBKTNV-1" target="w89j16ikShE9Zsby8Ksw-25">
          <mxGeometry width="50" height="50" relative="1" as="geometry">
            <mxPoint x="732" y="230" as="sourcePoint" />
            <mxPoint x="670" y="290" as="targetPoint" />
          </mxGeometry>
        </mxCell>
        <mxCell id="w89j16ikShE9Zsby8Ksw-28" value="" style="endArrow=classic;html=1;rounded=0;entryX=0.484;entryY=-0.161;entryDx=0;entryDy=0;exitX=0.788;exitY=0.852;exitDx=0;exitDy=0;exitPerimeter=0;entryPerimeter=0;fillColor=#008a00;strokeColor=#005700;shadow=1;flowAnimation=0;" edge="1" parent="WIyWlLk6GJQsqaUBKTNV-1" source="Tkb0sxCdEuPJOBt_XraD-61">
          <mxGeometry width="50" height="50" relative="1" as="geometry">
            <mxPoint x="600" y="230" as="sourcePoint" />
            <mxPoint x="654" y="287" as="targetPoint" />
          </mxGeometry>
        </mxCell>
      </root>
    </mxGraphModel>
  </diagram>
</mxfile>
